<?xml version="1.0" standalone="no"?><!-- Generator: Gravit.io --><svg xmlns="http://www.w3.org/2000/svg" xmlns:xlink="http://www.w3.org/1999/xlink" style="isolation:isolate" viewBox="187.846 104.473 44 49.806" width="44" height="49.806"><path d=" M 209.846 104.473 C 207.393 104.473 205.323 105.84 202.252 107.418 C 199.178 109 195.065 110.907 188.632 112.317 L 187.846 112.493 L 187.846 113.293 C 187.846 128.618 193.201 138.844 198.58 145.193 C 203.963 151.544 209.424 154.076 209.424 154.076 L 209.866 154.279 L 210.299 154.059 C 210.299 154.059 231.846 142.953 231.846 113.293 L 231.846 112.493 L 231.061 112.317 C 224.627 110.907 220.514 109 217.44 107.418 C 214.37 105.84 212.3 104.473 209.846 104.473 Z  M 209.846 106.473 C 211.491 106.473 213.389 107.583 216.53 109.2 C 219.506 110.73 223.71 112.586 229.783 114.02 C 229.428 141.153 211.123 151.313 209.83 151.993 C 209.205 151.692 204.877 149.528 200.112 143.899 C 195.08 137.965 190.088 128.433 189.908 114.019 C 195.983 112.586 200.186 110.731 203.162 109.199 C 206.303 107.583 208.202 106.473 209.846 106.473 Z  M 209.846 120.473 C 208.078 120.474 206.52 121.635 206.015 123.33 C 205.51 125.025 206.178 126.85 207.658 127.817 L 205.846 135.973 L 213.846 135.973 L 212.033 127.817 C 213.513 126.85 214.181 125.025 213.677 123.33 C 213.172 121.636 211.614 120.474 209.846 120.473 Z " fill="rgb(44,161,234)"/></svg>